<svg width="19" height="15" viewBox="0 0 19 15" fill="none" xmlns="http://www.w3.org/2000/svg">
<path d="M18.5452 7.84832C18.6368 7.62515 18.6368 7.37483 18.5452 7.15165C18.5015 7.03913 18.4361 6.93633 18.3527 6.84915L11.936 0.432487C11.8505 0.347018 11.7491 0.279221 11.6374 0.232966C11.5257 0.18671 11.406 0.162903 11.2852 0.162903C11.041 0.162903 10.8069 0.259875 10.6343 0.432487C10.5489 0.517956 10.4811 0.619422 10.4348 0.731092C10.3885 0.842762 10.3647 0.962449 10.3647 1.08332C10.3647 1.32743 10.4617 1.56154 10.6343 1.73415L15.4927 6.58332H1.20182C0.958708 6.58332 0.72555 6.6799 0.553642 6.85181C0.381733 7.02371 0.285156 7.25687 0.285156 7.49999C0.285156 7.7431 0.381733 7.97626 0.553642 8.14817C0.72555 8.32008 0.958708 8.41665 1.20182 8.41665H15.4927L10.6343 13.2658C10.5484 13.351 10.4802 13.4524 10.4337 13.5641C10.3871 13.6758 10.3632 13.7956 10.3632 13.9167C10.3632 14.0377 10.3871 14.1575 10.4337 14.2692C10.4802 14.3809 10.5484 14.4823 10.6343 14.5675C10.7195 14.6534 10.8209 14.7216 10.9326 14.7681C11.0443 14.8147 11.1641 14.8386 11.2852 14.8386C11.4062 14.8386 11.526 14.8147 11.6377 14.7681C11.7494 14.7216 11.8508 14.6534 11.936 14.5675L18.3527 8.15082C18.4361 8.06364 18.5015 7.96084 18.5452 7.84832Z" fill="white"/>
</svg>
