<svg width="32" height="23" viewBox="0 0 32 23" fill="none" xmlns="http://www.w3.org/2000/svg">
<path d="M3.16843 3.75095C3.16843 2.00397 4.58878 0.583618 6.33576 0.583618H25.3397C27.0867 0.583618 28.5071 2.00397 28.5071 3.75095V16.4203H25.3397V3.75095H6.33576V16.4203H3.16843V3.75095ZM0.00109863 18.9541C0.00109863 18.4295 0.426709 18.0039 0.951298 18.0039H30.7242C31.2488 18.0039 31.6744 18.4295 31.6744 18.9541C31.6744 21.0525 29.972 22.7549 27.8736 22.7549H3.8019C1.70354 22.7549 0.00109863 21.0525 0.00109863 18.9541ZM13.9077 9.34327L12.3735 10.8774L13.9077 12.4116C14.3729 12.8768 14.3729 13.6291 13.9077 14.0893C13.4425 14.5496 12.6902 14.5545 12.23 14.0893L9.85447 11.7138C9.38927 11.2486 9.38927 10.4964 9.85447 10.0361L12.23 7.66062C12.6952 7.19542 13.4474 7.19542 13.9077 7.66062C14.3679 8.12582 14.3729 8.87806 13.9077 9.33832V9.34327ZM19.4505 7.66062L21.826 10.0361C22.2912 10.5013 22.2912 11.2536 21.826 11.7138L19.4505 14.0893C18.9853 14.5545 18.233 14.5545 17.7728 14.0893C17.3125 13.6241 17.3076 12.8719 17.7728 12.4116L19.307 10.8774L17.7728 9.34327C17.3076 8.87807 17.3076 8.12582 17.7728 7.66557C18.238 7.20532 18.9902 7.20037 19.4505 7.66557V7.66062Z" fill="#161B22"/>
</svg>
