<svg width="52" height="51" viewBox="0 0 52 51" fill="none" xmlns="http://www.w3.org/2000/svg">
<path fill-rule="evenodd" clip-rule="evenodd" d="M26.0733 0.570312C11.9492 0.570312 0.496094 12.0209 0.496094 26.1475C0.496094 37.4486 7.82473 47.0356 17.9873 50.418C19.2652 50.6552 19.7345 49.8632 19.7345 49.1876C19.7345 48.5777 19.7107 46.5629 19.6997 44.4257C12.5841 45.9729 11.0827 41.4079 11.0827 41.4079C9.91917 38.4515 8.24277 37.6654 8.24277 37.6654C5.92173 36.078 8.4177 36.111 8.4177 36.111C10.9857 36.291 12.3385 38.7467 12.3385 38.7467C14.6197 42.6561 18.3219 41.5261 19.7815 40.8729C20.011 39.2198 20.6739 38.0911 21.4053 37.4524C15.7243 36.8065 9.75187 34.6129 9.75187 24.8125C9.75187 22.02 10.7514 19.7384 12.3876 17.9468C12.1216 17.303 11.2461 14.7015 12.635 11.1785C12.635 11.1785 14.7823 10.4911 19.6701 13.8002C21.7107 13.2331 23.8992 12.9481 26.0733 12.9383C28.2461 12.9481 30.4358 13.2323 32.4803 13.7994C37.3621 10.4902 39.5069 11.1776 39.5069 11.1776C40.8991 14.7003 40.0236 17.3021 39.7581 17.9459C41.398 19.7375 42.3904 22.0192 42.3904 24.8116C42.3904 34.6354 36.407 36.798 30.7115 37.4316C31.6294 38.2253 32.4468 39.7823 32.4468 42.1682C32.4468 45.5904 32.4171 48.3447 32.4171 49.1872C32.4171 49.8678 32.878 50.6654 34.174 50.4142C44.3307 47.0284 51.6509 37.4443 51.6509 26.1475C51.6504 12.0218 40.1986 0.570312 26.0733 0.570312Z" fill="#D5FF3F"/>
</svg>
