<svg width="58" height="59" viewBox="0 0 58 59" fill="none" xmlns="http://www.w3.org/2000/svg">
<path d="M53.3506 0.750158H4.64813C4.10066 0.742555 3.55707 0.842869 3.04838 1.04537C2.53969 1.24788 2.07587 1.5486 1.68342 1.93038C1.29096 2.31215 0.977559 2.7675 0.761102 3.27041C0.544644 3.77332 0.429374 4.31394 0.421875 4.86141V54.1389C0.429374 54.6864 0.544644 55.227 0.761102 55.7299C0.977559 56.2328 1.29096 56.6882 1.68342 57.0699C2.07587 57.4517 2.53969 57.7524 3.04838 57.9549C3.55707 58.1574 4.10066 58.2578 4.64813 58.2502H53.3506C53.8981 58.2578 54.4417 58.1574 54.9504 57.9549C55.4591 57.7524 55.9229 57.4517 56.3153 57.0699C56.7078 56.6882 57.0212 56.2328 57.2377 55.7299C57.4541 55.227 57.5694 54.6864 57.5769 54.1389V4.86141C57.5694 4.31394 57.4541 3.77332 57.2377 3.27041C57.0212 2.7675 56.7078 2.31215 56.3153 1.93038C55.9229 1.5486 55.4591 1.24788 54.9504 1.04537C54.4417 0.842869 53.8981 0.742555 53.3506 0.750158ZM17.7581 48.8777H9.13313V23.0027H17.7581V48.8777ZM13.4456 19.3802C12.2561 19.3802 11.1154 18.9076 10.2743 18.0665C9.43315 17.2254 8.96063 16.0847 8.96063 14.8952C8.96063 13.7057 9.43315 12.5649 10.2743 11.7238C11.1154 10.8827 12.2561 10.4102 13.4456 10.4102C14.0773 10.3385 14.7169 10.4011 15.3226 10.5938C15.9284 10.7865 16.4866 11.105 16.9608 11.5284C17.4349 11.9518 17.8143 12.4706 18.074 13.0508C18.3337 13.631 18.468 14.2595 18.468 14.8952C18.468 15.5308 18.3337 16.1593 18.074 16.7395C17.8143 17.3197 17.4349 17.8385 16.9608 18.2619C16.4866 18.6853 15.9284 19.0038 15.3226 19.1965C14.7169 19.3892 14.0773 19.4518 13.4456 19.3802ZM48.8656 48.8777H40.2406V34.9914C40.2406 31.5127 39.0044 29.2414 35.8706 29.2414C34.9008 29.2485 33.9564 29.5527 33.1648 30.113C32.3731 30.6733 31.7723 31.4628 31.4431 32.3752C31.2181 33.0509 31.1207 33.7626 31.1556 34.4739V48.8489H22.5306C22.5306 48.8489 22.5306 25.3314 22.5306 22.9739H31.1556V26.6252C31.9392 25.2656 33.0787 24.1455 34.4516 23.3856C35.8246 22.6257 37.3788 22.2547 38.9469 22.3127C44.6969 22.3127 48.8656 26.0214 48.8656 33.9852V48.8777Z" fill="#D5FF3F"/>
</svg>
